<svg width="400" height="148" viewBox="0 0 400 148" fill="none" xmlns="http://www.w3.org/2000/svg">
<path d="M1.39602 36.5071L7.43241 51.7327C13.4688 66.9584 25.5416 97.4096 37.6143 119.067C49.6871 140.724 61.7599 153.586 73.8326 140.344C85.9054 127.102 97.9782 87.7553 110.051 61.3855C122.124 35.0158 134.196 21.623 146.269 19.1198C158.342 16.6165 170.415 25.0027 182.488 44.4842C194.56 63.9658 206.633 94.5426 218.706 87.3099C230.779 80.0772 242.851 35.0351 254.924 15.0203C266.997 -4.99441 279.07 0.0183117 291.142 12.0179C303.215 24.0176 315.288 43.0041 327.361 54.3598C339.434 65.7155 351.506 69.4403 363.579 60.7674C375.652 52.0945 387.725 31.0239 399.797 29.3803" stroke="#56CDAD" stroke-width="3"/>
</svg>
