<svg width="40" height="30" viewBox="0 0 40 30" fill="none" xmlns="http://www.w3.org/2000/svg">
<path fill-rule="evenodd" clip-rule="evenodd" d="M0 0V30H40V0H0Z" fill="#2E42A5"/>
<mask id="mask0_0_46" style="mask-type:luminance" maskUnits="userSpaceOnUse" x="0" y="0" width="40" height="30">
<path fill-rule="evenodd" clip-rule="evenodd" d="M0 0V30H40V0H0Z" fill="white"/>
</mask>
<g mask="url(#mask0_0_46)">
<rect width="22.5" height="17.5" fill="#2B409A"/>
<mask id="mask1_0_46" style="mask-type:luminance" maskUnits="userSpaceOnUse" x="0" y="0" width="23" height="18">
<rect width="22.5" height="17.5" fill="white"/>
</mask>
<g mask="url(#mask1_0_46)">
<path d="M-2.50488 16.2499L2.44631 18.4214L22.6128 2.36104L25.2244 -0.865875L19.9299 -1.59166L11.7044 5.32921L5.0838 9.99225L-2.50488 16.2499Z" fill="#F7FCFF"/>
<path d="M-1.82715 17.7711L0.695253 19.0312L24.2865 -1.16589H20.7448L-1.82715 17.7711Z" fill="#F50100"/>
<path d="M25.0068 16.2496L20.0556 18.4211L-0.110847 2.36079L-2.72249 -0.866119L2.5721 -1.5919L10.7975 5.32896L17.4182 9.99201L25.0068 16.2496Z" fill="#F7FCFF"/>
<path d="M24.8379 17.3414L22.3155 18.6016L12.2701 9.95412L9.29183 8.98796L-2.97379 -0.855207H0.567957L12.8267 8.75432L16.0829 9.91285L24.8379 17.3414Z" fill="#F50100"/>
<mask id="path-9-outside-1_0_46" maskUnits="userSpaceOnUse" x="-2" y="-2" width="26" height="21" fill="black">
<rect fill="white" x="-2" y="-2" width="26" height="21"/>
<path fill-rule="evenodd" clip-rule="evenodd" d="M12.4805 0H9.98047V7.5H0V10H9.98047V17.5H12.4805V10H22.5V7.5H12.4805V0Z"/>
</mask>
<path fill-rule="evenodd" clip-rule="evenodd" d="M12.4805 0H9.98047V7.5H0V10H9.98047V17.5H12.4805V10H22.5V7.5H12.4805V0Z" fill="#F50100"/>
<path d="M9.98047 0V-1.5H8.48047V0H9.98047ZM12.4805 0H13.9805V-1.5H12.4805V0ZM9.98047 7.5V9H11.4805V7.5H9.98047ZM0 7.5V6H-1.5V7.5H0ZM0 10H-1.5V11.5H0V10ZM9.98047 10H11.4805V8.5H9.98047V10ZM9.98047 17.5H8.48047V19H9.98047V17.5ZM12.4805 17.5V19H13.9805V17.5H12.4805ZM12.4805 10V8.5H10.9805V10H12.4805ZM22.5 10V11.5H24V10H22.5ZM22.5 7.5H24V6H22.5V7.5ZM12.4805 7.5H10.9805V9H12.4805V7.5ZM9.98047 1.5H12.4805V-1.5H9.98047V1.5ZM11.4805 7.5V0H8.48047V7.5H11.4805ZM0 9H9.98047V6H0V9ZM1.5 10V7.5H-1.5V10H1.5ZM9.98047 8.5H0V11.5H9.98047V8.5ZM11.4805 17.5V10H8.48047V17.5H11.4805ZM12.4805 16H9.98047V19H12.4805V16ZM10.9805 10V17.5H13.9805V10H10.9805ZM22.5 8.5H12.4805V11.5H22.5V8.5ZM21 7.5V10H24V7.5H21ZM12.4805 9H22.5V6H12.4805V9ZM10.9805 0V7.5H13.9805V0H10.9805Z" fill="#F7FCFF" mask="url(#path-9-outside-1_0_46)"/>
</g>
</g>
<path d="M13.5 23L12.1983 24.2029L12.3273 22.4352L10.5752 22.1676L12.0376 21.1662L11.1545 19.6295L12.8492 20.1485L13.5 18.5L14.1508 20.1485L15.8455 19.6295L14.9624 21.1662L16.4248 22.1676L14.6727 22.4352L14.8017 24.2029L13.5 23Z" fill="#F7FCFF"/>
<path d="M26.5 15.5L25.6322 16.3019L25.7182 15.1235L24.5501 14.945L25.5251 14.2775L24.9363 13.253L26.0661 13.599L26.5 12.5L26.9339 13.599L28.0637 13.253L27.4749 14.2775L28.4499 14.945L27.2818 15.1235L27.3678 16.3019L26.5 15.5Z" fill="#F7FCFF"/>
<path d="M28.5 7.5L27.6322 8.30194L27.7182 7.12349L26.5501 6.94504L27.5251 6.27748L26.9363 5.25302L28.0661 5.59903L28.5 4.5L28.9339 5.59903L30.0637 5.25302L29.4749 6.27748L30.4499 6.94504L29.2818 7.12349L29.3678 8.30194L28.5 7.5Z" fill="#F7FCFF"/>
<path d="M33.5 11.5L32.6322 12.3019L32.7182 11.1235L31.5501 10.945L32.5251 10.2775L31.9363 9.25302L33.0661 9.59903L33.5 8.5L33.9339 9.59903L35.0637 9.25302L34.4749 10.2775L35.4499 10.945L34.2818 11.1235L34.3678 12.3019L33.5 11.5Z" fill="#F7FCFF"/>
<path d="M29.5 24.5L28.6322 25.3019L28.7182 24.1235L27.5501 23.945L28.5251 23.2775L27.9363 22.253L29.0661 22.599L29.5 21.5L29.9339 22.599L31.0637 22.253L30.4749 23.2775L31.4499 23.945L30.2818 24.1235L30.3678 25.3019L29.5 24.5Z" fill="#F7FCFF"/>
<path d="M33 16.75L32.1183 17.2135L32.2867 16.2318L31.5734 15.5365L32.5592 15.3932L33 14.5L33.4408 15.3932L34.4266 15.5365L33.7133 16.2318L33.8817 17.2135L33 16.75Z" fill="#F7FCFF"/>
</svg>
