<svg width="24" height="25" viewBox="0 0 24 25" fill="none" xmlns="http://www.w3.org/2000/svg">
<path fill-rule="evenodd" clip-rule="evenodd" d="M10.483 20.1706C11.001 20.7485 11.666 21.066 12.356 21.066H12.357C13.05 21.066 13.718 20.7485 14.237 20.1696C14.515 19.8621 14.989 19.837 15.296 20.1145C15.604 20.3919 15.629 20.8677 15.352 21.1752C14.544 22.0737 13.481 22.5685 12.357 22.5685H12.355C11.234 22.5675 10.173 22.0727 9.36798 21.1742C9.09098 20.8667 9.11598 20.3909 9.42398 20.1145C9.73198 19.836 10.206 19.8611 10.483 20.1706ZM12.4058 1.0332C16.8508 1.0332 19.8368 4.50089 19.8368 7.7392C19.8368 9.40493 20.2598 10.1111 20.7088 10.8603C21.1528 11.5995 21.6558 12.4389 21.6558 14.0255C21.3068 18.0791 17.0818 18.4097 12.4058 18.4097C7.72978 18.4097 3.50378 18.0791 3.15877 14.0896C3.15578 12.4389 3.65878 11.5995 4.10278 10.8603L4.25952 10.596C4.64545 9.93165 4.97478 9.20896 4.97478 7.7392C4.97478 4.50089 7.96078 1.0332 12.4058 1.0332ZM12.4058 2.53567C8.91078 2.53567 6.47478 5.27816 6.47478 7.7392C6.47478 9.82161 5.89778 10.7842 5.38778 11.6336C4.97878 12.3157 4.65578 12.8546 4.65578 14.0255C4.82278 15.9146 6.06778 16.9072 12.4058 16.9072C18.7088 16.9072 19.9928 15.8705 20.1588 13.9604C20.1558 12.8546 19.8328 12.3157 19.4238 11.6336C18.9138 10.7842 18.3368 9.82161 18.3368 7.7392C18.3368 5.27816 15.9008 2.53567 12.4058 2.53567Z" fill="#25324B"/>
<path d="M18 9.51473C19.9338 9.51473 21.5 7.94475 21.5 6.00981C21.5 4.07487 19.9338 2.50488 18 2.50488C16.0662 2.50488 14.5 4.07487 14.5 6.00981C14.5 7.94475 16.0662 9.51473 18 9.51473Z" fill="#FF6550" stroke="white"/>
</svg>
