<svg width="152" height="152" viewBox="0 0 152 152" fill="none" xmlns="http://www.w3.org/2000/svg">
<circle cx="76" cy="76.0001" r="64.3765" stroke="#E9EBFD" stroke-width="14.3059"/>
<g filter="url(#filter0_d_0_7)">
<mask id="path-2-inside-1_0_7" fill="white">
<path d="M76 0C92.0496 1.9139e-07 107.687 5.08098 120.672 14.5147C133.656 23.9484 143.321 37.2506 148.28 52.5147C153.24 67.7788 153.24 84.2212 148.28 99.4853C143.321 114.749 133.656 128.052 120.672 137.485L107.27 119.04C116.359 112.436 123.124 103.125 126.596 92.4397C130.068 81.7548 130.068 70.2452 126.596 59.5603C123.124 48.8754 116.359 39.5639 107.27 32.9603C98.1811 26.3567 87.2347 22.8 76 22.8V0Z"/>
</mask>
<path d="M76 0C92.0496 1.9139e-07 107.687 5.08098 120.672 14.5147C133.656 23.9484 143.321 37.2506 148.28 52.5147C153.24 67.7788 153.24 84.2212 148.28 99.4853C143.321 114.749 133.656 128.052 120.672 137.485L107.27 119.04C116.359 112.436 123.124 103.125 126.596 92.4397C130.068 81.7548 130.068 70.2452 126.596 59.5603C123.124 48.8754 116.359 39.5639 107.27 32.9603C98.1811 26.3567 87.2347 22.8 76 22.8V0Z" stroke="#4640DE" stroke-width="42.9176" shape-rendering="crispEdges" mask="url(#path-2-inside-1_0_7)"/>
</g>
<defs>
<filter id="filter0_d_0_7" x="58.1176" y="-17.8824" width="129.647" height="191.132" filterUnits="userSpaceOnUse" color-interpolation-filters="sRGB">
<feFlood flood-opacity="0" result="BackgroundImageFix"/>
<feColorMatrix in="SourceAlpha" type="matrix" values="0 0 0 0 0 0 0 0 0 0 0 0 0 0 0 0 0 0 127 0" result="hardAlpha"/>
<feOffset dx="8.94118" dy="8.94118"/>
<feGaussianBlur stdDeviation="13.4118"/>
<feComposite in2="hardAlpha" operator="out"/>
<feColorMatrix type="matrix" values="0 0 0 0 0.27451 0 0 0 0 0.25098 0 0 0 0 0.870588 0 0 0 0.2 0"/>
<feBlend mode="normal" in2="BackgroundImageFix" result="effect1_dropShadow_0_7"/>
<feBlend mode="normal" in="SourceGraphic" in2="effect1_dropShadow_0_7" result="shape"/>
</filter>
</defs>
</svg>
