<svg width="40" height="40" viewBox="0 0 40 40" fill="none" xmlns="http://www.w3.org/2000/svg">
<g clip-path="url(#clip0_0_4700)">
<path fill-rule="evenodd" clip-rule="evenodd" d="M6.6665 20.0002C6.6665 19.0797 7.4127 18.3335 8.33317 18.3335H31.6665C32.587 18.3335 33.3332 19.0797 33.3332 20.0002C33.3332 20.9206 32.587 21.6668 31.6665 21.6668H8.33317C7.4127 21.6668 6.6665 20.9206 6.6665 20.0002Z" fill="#25324B"/>
<path fill-rule="evenodd" clip-rule="evenodd" d="M7.15466 18.8217C7.80553 18.1708 8.86081 18.1708 9.51168 18.8217L19.5117 28.8217C20.1626 29.4725 20.1626 30.5278 19.5117 31.1787C18.8608 31.8295 17.8055 31.8295 17.1547 31.1787L7.15466 21.1787C6.50379 20.5278 6.50379 19.4725 7.15466 18.8217Z" fill="#25324B"/>
<path fill-rule="evenodd" clip-rule="evenodd" d="M19.5117 8.82165C20.1626 9.47253 20.1626 10.5278 19.5117 11.1787L9.51168 21.1787C8.86081 21.8295 7.80553 21.8295 7.15466 21.1787C6.50379 20.5278 6.50379 19.4725 7.15466 18.8217L17.1547 8.82165C17.8055 8.17078 18.8608 8.17078 19.5117 8.82165Z" fill="#25324B"/>
</g>
<defs>
<clipPath id="clip0_0_4700">
<rect width="40" height="40" fill="white"/>
</clipPath>
</defs>
</svg>
