<svg width="15" height="5" viewBox="0 0 15 5" fill="none" xmlns="http://www.w3.org/2000/svg">
<mask id="path-1-inside-1_0_3637" fill="white">
<path d="M7.5 4.77716C10.2728 4.77716 13.0456 2.58749 14.8458 0.801906C15.261 0.390012 14.761 -0.203937 14.2439 0.0693752C12.2871 1.10364 9.59953 2.28028 7.5 2.28028C5.40047 2.28028 2.71292 1.10364 0.756119 0.0693747C0.239018 -0.203937 -0.261021 0.39001 0.154233 0.801904C1.95438 2.58749 4.72719 4.77716 7.5 4.77716Z"/>
</mask>
<path d="M14.8458 0.801906L17.0437 3.01781V3.01781L14.8458 0.801906ZM0.154233 0.801904L-2.04374 3.0178H-2.04374L0.154233 0.801904ZM0.756119 0.0693747L2.21458 -2.69001L2.21458 -2.69001L0.756119 0.0693747ZM14.2439 0.0693752L12.7854 -2.69001L12.7854 -2.69001L14.2439 0.0693752ZM12.6478 -1.414C11.8469 -0.619605 10.897 0.194681 9.91371 0.793762C8.90359 1.40919 8.09008 1.65606 7.5 1.65606V7.89827C9.68272 7.89827 11.642 7.0503 13.1616 6.12449C14.7079 5.18234 16.0445 4.009 17.0437 3.01781L12.6478 -1.414ZM7.5 1.65606C6.90992 1.65606 6.09641 1.40919 5.08629 0.793762C4.10301 0.19468 3.15308 -0.619606 2.35221 -1.414L-2.04374 3.0178C-1.04446 4.009 0.292084 5.18234 1.83845 6.12449C3.35798 7.05029 5.31728 7.89827 7.5 7.89827V1.65606ZM-0.702342 2.82876C0.354126 3.38715 1.65594 4.01029 3.0195 4.50005C4.34451 4.97597 5.93119 5.40138 7.5 5.40138V-0.840829C6.96928 -0.840829 6.16242 -1.00373 5.12957 -1.37471C4.13528 -1.73183 3.11492 -2.21414 2.21458 -2.69001L-0.702342 2.82876ZM7.5 5.40138C9.06881 5.40138 10.6555 4.97597 11.9805 4.50005C13.3441 4.01029 14.6459 3.38715 15.7023 2.82876L12.7854 -2.69001C11.8851 -2.21414 10.8647 -1.73183 9.87043 -1.37471C8.83758 -1.00373 8.03072 -0.840829 7.5 -0.840829V5.40138ZM17.0437 3.01781C17.6617 2.40484 18.0884 1.5515 18.1192 0.573308C18.1488 -0.367397 17.8048 -1.20227 17.2953 -1.81568C16.251 -3.07278 14.3999 -3.54331 12.7854 -2.69001L15.7023 2.82876C14.605 3.40875 13.2625 3.09854 12.4937 2.17305C12.1218 1.72546 11.8574 1.09922 11.8801 0.377184C11.9039 -0.382339 12.2374 -1.00697 12.6478 -1.41399L17.0437 3.01781ZM2.35221 -1.414C2.76255 -1.00697 3.09607 -0.38234 3.11994 0.377185C3.14264 1.09922 2.87815 1.72546 2.50633 2.17306C1.73752 3.09854 0.394993 3.40875 -0.702342 2.82876L2.21458 -2.69001C0.600144 -3.54331 -1.25095 -3.07278 -2.29524 -1.81568C-2.80481 -1.20228 -3.14876 -0.367404 -3.11919 0.573303C-3.08844 1.5515 -2.66171 2.40483 -2.04374 3.0178L2.35221 -1.414Z" fill="white" mask="url(#path-1-inside-1_0_3637)"/>
</svg>
