<svg width="1194" height="40" viewBox="0 0 1194 40" fill="none" xmlns="http://www.w3.org/2000/svg">
<g opacity="0.3">
<path d="M37.5616 20.0003C37.5616 25.0221 35.5829 29.8383 32.0608 33.3892C28.5387 36.9402 23.7618 38.9351 18.7808 38.9351C13.7998 38.9351 9.02284 36.9402 5.50076 33.3892C1.97868 29.8383 0 25.0221 0 20.0003C0 14.9784 1.97868 10.1623 5.50076 6.61132C9.02284 3.06034 13.7998 1.06543 18.7808 1.06543C23.7618 1.06543 28.5387 3.06034 32.0608 6.61132C35.5829 10.1623 37.5616 14.9784 37.5616 20.0003Z" fill="white"/>
<path d="M18.9349 30.5534C13.7741 30.5718 8.40424 26.1381 8.37698 19.002C8.36789 14.2843 10.8938 9.74984 14.1102 7.05664C17.2631 4.42756 21.5699 2.75118 25.4769 2.73286C25.9328 2.71556 26.3888 2.76493 26.8307 2.87943C25.1153 3.2606 23.5776 4.214 22.4663 5.58544C21.355 6.95688 20.735 8.66618 20.7067 10.4369C20.7067 10.5651 20.7067 10.6934 20.7249 10.7483C26.4491 12.1499 29.0386 15.6309 29.0567 20.4494C29.0532 21.7837 28.7882 23.1042 28.2771 24.3351C27.7659 25.5659 27.0186 26.6828 26.0781 27.6217C25.1376 28.5605 24.0224 29.3028 22.7966 29.806C21.5707 30.3091 20.2584 30.5631 18.9349 30.5534Z" fill="#202430"/>
<path d="M49.6923 27.8416L43.959 14.0183H47.7115L51.3005 23.1972L54.7713 14.0183H58.3512L52.7724 27.8416H49.6923ZM68.3367 20.8612C68.3409 20.3052 68.2737 19.751 68.1368 19.2123C68.0212 18.7356 67.8178 18.2851 67.5372 17.8841C67.2843 17.5205 66.9556 17.2172 66.5741 16.9955C66.167 16.7639 65.7057 16.6468 65.2384 16.6565C64.7711 16.6463 64.3096 16.7634 63.9028 16.9955C63.5172 17.2152 63.1851 17.5187 62.9306 17.8841C62.6522 18.2885 62.4518 18.7423 62.34 19.2215C62.2039 19.7572 62.1367 20.3083 62.1401 20.8612C62.1355 21.4173 62.2027 21.9716 62.34 22.5101C62.4544 22.9854 62.6479 23.4376 62.9124 23.8476C63.1637 24.234 63.508 24.5501 63.9131 24.7663C64.3182 24.9825 64.771 25.0919 65.2293 25.0842C65.6875 25.0983 66.1413 24.9916 66.546 24.7747C66.9508 24.5578 67.2924 24.2383 67.5372 23.8476C67.8138 23.4443 68.0169 22.9945 68.1368 22.5193C68.2749 21.9778 68.3421 21.4203 68.3367 20.8612ZM71.7985 20.8704C71.7986 21.7719 71.6607 22.6679 71.3896 23.527C71.1253 24.3744 70.7096 25.1661 70.163 25.8629C69.5769 26.6062 68.826 27.2006 67.9708 27.5983C67.1155 27.996 66.1797 28.186 65.2384 28.153C64.2961 28.1838 63.3597 27.9929 62.5033 27.5954C61.6469 27.1979 60.8942 26.6047 60.3047 25.8629C59.7593 25.1653 59.3437 24.3739 59.0781 23.527C58.5381 21.8071 58.5381 19.9611 59.0781 18.2413C59.3439 17.4029 59.7597 16.6205 60.3047 15.9329C60.8593 15.2448 61.5573 14.6881 62.3491 14.3023C63.2511 13.8711 64.2404 13.6578 65.2384 13.6794C66.1738 13.6533 67.1027 13.8427 67.9545 14.2332C68.8064 14.6237 69.5586 15.205 70.1539 15.9329C70.6991 16.6107 71.1171 17.3802 71.3896 18.2413C71.6622 19.1024 71.7985 19.9818 71.7985 20.8704ZM82.3928 17.0688C81.7909 16.8131 81.1468 16.6733 80.4938 16.6565C79.9833 16.6316 79.4748 16.7359 79.0146 16.9599C78.5543 17.1839 78.157 17.5205 77.8589 17.939C77.5719 18.3411 77.3566 18.7906 77.2228 19.2673C77.0819 19.7585 77.0115 20.2675 77.0139 20.7788C77.0107 21.3337 77.0717 21.887 77.1956 22.4277C77.3048 22.9161 77.4986 23.3812 77.768 23.8018C78.0133 24.1888 78.3427 24.5145 78.7311 24.7545C79.1127 24.9926 79.5761 25.1209 80.094 25.1209C80.5622 25.1104 81.0208 24.9846 81.4297 24.7545C81.8215 24.5683 82.1548 24.2766 82.3928 23.9117V17.0688ZM82.6744 27.8416L82.5382 26.7789C82.1762 27.1754 81.745 27.5015 81.2661 27.7408C80.5717 28.0403 79.8195 28.1793 79.0649 28.1476C78.3102 28.1159 77.5722 27.9143 76.9048 27.5576C76.1894 27.1607 75.569 26.6104 75.0876 25.9453C74.5792 25.246 74.1978 24.4613 73.961 23.6277C73.7057 22.7344 73.5773 21.8092 73.5794 20.8796C73.5794 19.9727 73.7066 19.0932 73.9701 18.2322C74.2264 17.3961 74.6363 16.6162 75.1785 15.9329C75.7642 15.2008 76.5107 14.6161 77.3591 14.225C78.2075 13.8339 79.1344 13.6471 80.0668 13.6794C80.7937 13.6794 81.566 13.8168 82.3928 14.0824V8.72352H85.9182V27.8416H82.6744ZM95.8401 21.3559C95.0628 21.4084 94.2892 21.5063 93.5231 21.649C92.7599 21.8048 92.2329 22.0613 91.9331 22.4368C91.6524 22.7799 91.4983 23.2105 91.497 23.6552C91.497 24.1132 91.6605 24.4797 91.9967 24.7545C92.4037 25.0549 92.9014 25.2038 93.405 25.1759C93.8593 25.1759 94.3136 25.0842 94.7407 24.8919C95.1446 24.7141 95.5162 24.4695 95.8401 24.1682V21.3559ZM96.1217 27.8232L95.9854 26.7973C95.5824 27.2372 95.0853 27.5787 94.5317 27.7958C93.3674 28.2603 92.0749 28.2799 90.8973 27.8507C90.0518 27.5665 89.3191 27.0162 88.8072 26.2807C88.2952 25.5452 88.031 24.6634 88.0534 23.7651C88.0417 23.1602 88.1693 22.5607 88.4263 22.0139C88.6833 21.4671 89.0626 20.9879 89.5344 20.6139C90.0112 20.2399 90.5411 19.9404 91.1063 19.7253C92.1884 19.3384 93.3151 19.0921 94.459 18.9925L95.8219 18.8642V18.6627C95.8219 17.9024 95.622 17.3619 95.2313 17.0321C94.7658 16.6833 94.193 16.5113 93.614 16.5466C92.5842 16.5518 91.5813 16.8782 90.7428 17.481C90.5596 17.5983 90.3836 17.7268 90.2158 17.8657L89.0437 15.3741C89.6059 14.944 90.2234 14.5927 90.8791 14.3298C92.587 13.614 94.4826 13.4915 96.2671 13.9817C96.8807 14.175 97.4421 14.5076 97.9084 14.9538C98.3746 15.4 98.7332 15.9481 98.9566 16.5558C99.2297 17.322 99.3591 18.1328 99.3382 18.9467V27.8324L96.1217 27.8232ZM110.232 11.8747C109.604 11.5913 108.921 11.4535 108.233 11.4717C107.752 11.4717 107.334 11.6182 107.007 11.9205C106.671 12.2137 106.507 12.6992 106.507 13.3679V14.0183H109.469V16.8856H106.534V27.8416H103.009V16.8856H101.192V14.0183H103.009V13.2855C103.009 12.3786 103.127 11.6182 103.354 10.9953C103.54 10.4373 103.852 9.9311 104.268 9.51739C104.683 9.10368 105.188 8.7941 105.744 8.61359C107.363 8.17769 109.078 8.28378 110.632 8.91589L110.232 11.8747ZM119.845 20.8612C119.848 20.3053 119.781 19.7513 119.645 19.2123C119.53 18.7356 119.326 18.2851 119.046 17.8841C118.793 17.5205 118.464 17.2172 118.083 16.9955C117.676 16.7639 117.214 16.6468 116.747 16.6565C116.28 16.6463 115.818 16.7634 115.411 16.9955C115.027 17.2166 114.695 17.5199 114.439 17.8841C114.16 18.2894 113.957 18.7426 113.839 19.2215C113.563 20.3031 113.563 21.4377 113.839 22.5193C113.959 22.9914 114.156 23.4402 114.421 23.8476C114.669 24.2255 115.002 24.5392 115.393 24.7636C115.809 24.9895 116.275 25.1031 116.747 25.0934C117.204 25.1049 117.657 24.996 118.06 24.7776C118.463 24.5591 118.803 24.2386 119.046 23.8476C119.322 23.4443 119.525 22.9945 119.645 22.5193C119.782 21.9774 119.849 21.4202 119.845 20.8612ZM123.307 20.8704C123.309 21.772 123.171 22.6683 122.898 23.527C122.635 24.3751 122.22 25.167 121.672 25.8629C121.085 26.6062 120.335 27.2006 119.479 27.5983C118.624 27.996 117.688 28.186 116.747 28.153C115.805 28.1838 114.868 27.9929 114.012 27.5954C113.155 27.1979 112.403 26.6047 111.813 25.8629C111.268 25.1653 110.852 24.3739 110.587 23.527C110.039 21.8083 110.039 19.96 110.587 18.2413C110.85 17.4035 111.262 16.6212 111.804 15.9329C112.361 15.2437 113.063 14.687 113.858 14.3023C114.76 13.8711 115.749 13.6578 116.747 13.6794C117.682 13.6533 118.611 13.8427 119.463 14.2332C120.315 14.6237 121.067 15.205 121.662 15.9329C122.208 16.6107 122.626 17.3802 122.898 18.2413C123.171 19.1024 123.307 19.9818 123.307 20.8704ZM134.256 27.8416V19.9635C134.31 19.0979 134.08 18.2383 133.602 17.5176C133.389 17.2378 133.113 17.0135 132.797 16.8637C132.481 16.7138 132.133 16.6428 131.784 16.6565C131.245 16.6503 130.716 16.7997 130.258 17.0871C129.819 17.3547 129.413 17.6746 129.049 18.0398V27.8416H125.524V14.0183H128.74L128.904 15.1176C130.013 14.1853 131.412 13.6762 132.856 13.6794C133.583 13.6794 134.247 13.7893 134.855 14.0091C135.449 14.2255 135.983 14.5839 136.409 15.0534C136.854 15.5298 137.19 16.1527 137.427 16.913C137.663 17.6825 137.781 18.5986 137.781 19.6612V27.8416H134.256ZM148.748 19.2673C148.722 18.8374 148.62 18.4156 148.448 18.0215C148.308 17.6968 148.104 17.4039 147.848 17.1604C147.408 16.7496 146.831 16.5207 146.231 16.5191C145.587 16.5308 144.968 16.7745 144.487 17.2062C144.196 17.4671 143.961 17.7838 143.794 18.1378C143.627 18.4917 143.532 18.8758 143.514 19.2673H148.748ZM143.433 21.8231C143.505 22.9865 143.869 23.8293 144.523 24.3422C145.243 24.8821 146.125 25.1569 147.022 25.1209C147.86 25.1199 148.691 24.9646 149.475 24.6629C149.762 24.548 150.042 24.4134 150.311 24.2598C150.494 24.1546 150.665 24.0286 150.819 23.8842L151.764 26.7789C151.23 27.1436 150.645 27.4275 150.029 27.6217C148.904 27.9695 147.735 28.1485 146.558 28.153C145.692 28.1561 144.832 28.0105 144.014 27.7225C143.22 27.443 142.497 26.9894 141.897 26.3942C141.262 25.7531 140.767 24.9856 140.443 24.1407C140.059 23.1173 139.874 22.0286 139.898 20.9345C139.898 19.762 140.071 18.736 140.398 17.8383C140.805 16.6075 141.591 15.5401 142.642 14.7919C143.693 14.0437 144.954 13.6539 146.24 13.6794C147.068 13.671 147.891 13.817 148.666 14.1099C149.402 14.3939 150.038 14.8428 150.574 15.4382C151.119 16.0428 151.546 16.8214 151.855 17.7833C152.173 18.736 152.328 19.8719 152.328 21.191V21.8231H143.433Z" fill="white"/>
</g>
<g opacity="0.3" clip-path="url(#clip0_0_342)">
<path d="M291.305 0.446289H297.245V6.41618H291.305V0.446289Z" fill="white"/>
<path d="M297.097 31.5512V10.0297H291.453V31.5299H297.098L297.097 31.5512ZM334.473 31.7636V26.4948C333.648 26.4948 332.951 26.4523 332.443 26.3674C331.851 26.2824 331.407 26.0699 331.111 25.7725C330.815 25.4751 330.625 25.0501 330.519 24.4765C330.435 23.9453 330.393 23.2443 330.393 22.3945V14.8949H334.473V10.0297H330.393V1.65911H324.748V22.4583C324.748 24.2216 324.896 25.7087 325.192 26.8985C325.488 28.067 325.996 29.023 326.693 29.7453C327.391 30.4677 328.321 30.9775 329.441 31.2963C330.583 31.6149 332.02 31.7636 333.733 31.7636H334.473ZM366.774 31.5512V0.00195312H361.13V31.5512H366.774ZM319.315 12.1543C317.751 10.4546 315.553 9.60483 312.762 9.60483C311.409 9.60483 310.162 9.88103 309.063 10.4334C307.942 10.9858 307.012 11.7506 306.251 12.7278L305.955 13.1315V10.0297H300.395V31.5299H305.997V20.0787V20.4824C306.061 18.4641 306.547 16.9769 307.477 16.0209C308.471 15.0011 309.676 14.4913 311.05 14.4913C312.678 14.4913 313.925 15.0011 314.749 15.9784C315.553 16.9557 315.975 18.3366 315.975 20.1V31.5299H321.662V19.3351C321.683 16.2758 320.88 13.8539 319.315 12.1543ZM358.212 20.7585C358.212 19.2077 357.938 17.763 357.409 16.4033C356.86 15.0648 356.098 13.8751 355.147 12.8553C354.175 11.8356 353.012 11.0495 351.659 10.4759C350.306 9.90223 348.805 9.62603 347.178 9.62603C345.634 9.62603 344.176 9.92351 342.823 10.4971C341.47 11.092 340.286 11.8781 339.292 12.8766C338.299 13.8751 337.495 15.0649 336.925 16.4246C336.333 17.7843 336.058 19.2502 336.058 20.8011C336.058 22.352 336.333 23.8179 336.882 25.1776C337.432 26.5373 338.214 27.727 339.187 28.7256C340.159 29.7241 341.364 30.5314 342.759 31.105C344.155 31.6999 345.698 31.9974 347.347 31.9974C352.124 31.9974 355.084 29.8091 356.86 27.7695L352.801 24.6677C351.955 25.6875 349.926 27.0685 347.389 27.0685C345.803 27.0685 344.493 26.7072 343.499 25.9637C342.506 25.2413 341.829 24.2216 341.47 22.9681L341.406 22.7769H358.212V20.7585ZM341.449 18.7828C341.449 17.2106 343.246 14.47 347.114 14.4488C350.983 14.4488 352.801 17.1894 352.801 18.7615L341.449 18.7828ZM373.201 28.8318C373.095 28.5769 372.947 28.3644 372.757 28.1732C372.567 27.982 372.355 27.8333 372.101 27.727C371.848 27.6208 371.573 27.5571 371.298 27.5571C371.002 27.5571 370.749 27.6208 370.495 27.727C370.241 27.8333 370.03 27.982 369.84 28.1732C369.649 28.3644 369.501 28.5769 369.396 28.8318C369.29 29.0867 369.227 29.3629 369.227 29.6391C369.227 29.9365 369.29 30.1914 369.396 30.4465C369.501 30.7013 369.649 30.9138 369.84 31.105C370.03 31.2963 370.241 31.445 370.495 31.5512C370.748 31.6574 371.023 31.7211 371.298 31.7211C371.594 31.7211 371.848 31.6574 372.101 31.5512C372.355 31.445 372.567 31.2963 372.757 31.105C372.947 30.9138 373.095 30.7014 373.201 30.4465C373.307 30.1915 373.37 29.9153 373.37 29.639C373.37 29.3627 373.306 29.0867 373.201 28.8318H373.201ZM372.863 30.319C372.778 30.5314 372.651 30.7226 372.503 30.8714C372.355 31.0201 372.165 31.1475 371.954 31.2325C371.742 31.3175 371.531 31.3599 371.277 31.3599C371.045 31.3599 370.812 31.3175 370.601 31.2325C370.389 31.1476 370.199 31.0201 370.051 30.8713C369.903 30.7226 369.776 30.5314 369.691 30.319C369.607 30.1065 369.565 29.894 369.565 29.6391C369.565 29.4054 369.607 29.1717 369.692 28.9593C369.776 28.7468 369.903 28.5556 370.051 28.4069C370.199 28.2582 370.389 28.1307 370.601 28.0456C370.812 27.9607 371.023 27.9182 371.277 27.9182C371.51 27.9182 371.742 27.9608 371.954 28.0457C372.165 28.1307 372.355 28.2582 372.503 28.407C372.651 28.5556 372.778 28.7467 372.863 28.9593C372.947 29.1718 372.989 29.3842 372.989 29.6391C372.989 29.894 372.947 30.1065 372.863 30.319ZM371.679 29.8303C371.848 29.8091 371.975 29.7453 372.08 29.6391C372.186 29.5329 372.249 29.3842 372.249 29.1717C372.249 28.938 372.186 28.768 372.038 28.6406C371.911 28.5131 371.679 28.4493 371.404 28.4493H370.474V30.8501H370.918V29.8728H371.235L371.827 30.8501H372.292L371.679 29.8303ZM371.446 29.4691H370.918V28.7893H371.446C371.509 28.7893 371.573 28.8105 371.636 28.8318C371.7 28.8531 371.742 28.8955 371.763 28.938C371.805 28.9805 371.805 29.0442 371.805 29.1292C371.805 29.2141 371.784 29.278 371.763 29.3204C371.721 29.3629 371.679 29.4054 371.636 29.4267C371.573 29.4479 371.509 29.4691 371.446 29.4691H371.446Z" fill="white"/>
</g>
<g opacity="0.3" clip-path="url(#clip1_0_342)">
<path d="M667.203 9.5232V23.9856H671.792V14.344H688.572V23.9856H693.16V9.5232H667.203ZM671.267 4.83448H688.965C691.456 4.37221 693.226 2.1269 693.75 0.0136719H666.482C667.007 2.1269 668.842 4.30617 671.267 4.83448ZM653.242 23.9856C655.536 22.995 656.781 21.278 657.306 19.2969H636.658V0.0797103H632.004V23.9856H653.242ZM597.591 4.76844H613.978C616.469 4.04202 618.501 2.1269 619.026 0.0797103H593.069V14.2119H614.306V19.1648H597.657C595.035 19.8912 592.806 21.6743 591.692 23.9856H618.894V9.5232H597.657L597.591 4.76844ZM557.214 4.83448H574.912C577.403 4.37221 579.238 2.1269 579.697 0.0136719H552.363C552.888 2.1269 554.723 4.30617 557.214 4.83448ZM557.214 14.278H574.912C577.403 13.8157 579.238 11.5704 579.697 9.45717H552.363C552.888 11.5704 554.723 13.7497 557.214 14.278ZM557.214 23.9856H574.912C577.403 23.5233 579.238 21.278 579.697 19.1648H552.363C552.888 21.278 554.723 23.5233 557.214 23.9856Z" fill="white"/>
<path d="M511.133 0.0797103C511.657 2.19294 513.493 4.30617 515.918 4.83448H523.39L523.784 4.96655V23.9196H528.437V4.96655L528.831 4.83448H536.303C538.794 4.17409 540.564 2.19294 541.088 0.0797103V0.0136719L511.133 0.0797103Z" fill="white"/>
</g>
<g opacity="0.3" clip-path="url(#clip2_0_342)">
<path d="M858.947 26.1392H852.49L850.515 21.335H839.755L837.955 26.1392H831.605L841.307 1.87487H848.257L858.947 26.1392ZM844.87 7.67292L841.342 17.1007H848.751L844.87 7.67292ZM882.4 1.87487H887.621V26.1392H881.623V10.983L875.132 18.5959H874.215L867.724 10.983V26.1389H861.726V1.87487H866.947L874.673 10.8759L882.4 1.87487ZM902.819 1.87487C911.603 1.87487 916.118 7.38866 916.118 14.0417C916.118 21.0147 911.744 26.1392 902.148 26.1392H892.199V1.87487H902.819ZM898.197 21.692H902.112C908.145 21.692 909.944 17.5641 909.944 14.0057C909.944 9.84275 907.721 6.32151 902.042 6.32151H898.197V21.692H898.197ZM928.051 7.62816L920.488 0H948.021V27.7664L940.458 20.1391V7.62816H928.051ZM928.042 9.1567L920.256 17.0086V28H931.153L938.939 20.1481H928.042V9.1567Z" fill="white"/>
</g>
<g opacity="0.3">
<path d="M1096.63 31.6074C1096.06 31.6074 1095.77 31.3594 1095.77 30.861V30.7045C1095.77 30.3914 1096.03 29.9195 1096.56 29.291C1097.11 28.6373 1097.38 27.9823 1097.38 27.3286V6.68086H1095.39C1094.82 6.68086 1094.29 6.93008 1093.82 7.42731C1093.37 7.91675 1093 8.47276 1092.73 9.07552C1092.48 9.65101 1092.17 10.188 1091.79 10.6852C1091.41 11.1824 1091.04 11.4316 1090.66 11.4316H1090.02C1089.32 11.4316 1089.01 11.0512 1089.09 10.2927L1089.84 4.95319C1089.91 4.14294 1090.34 3.7372 1091.11 3.7372H1110.42C1111.17 3.7372 1111.59 4.14294 1111.69 4.95319L1112.48 10.3312C1112.53 10.672 1112.47 10.9465 1112.29 11.1559C1112.12 11.3389 1111.87 11.4304 1111.54 11.4304H1110.9C1110.53 11.4304 1110.15 11.1824 1109.78 10.684C1109.4 10.1856 1109.08 9.65101 1108.8 9.07552C1108.53 8.47354 1108.15 7.92454 1107.68 7.42611C1107.2 6.93008 1106.67 6.68086 1106.1 6.68086H1104.14V27.3286C1104.14 27.9823 1104.41 28.6373 1104.93 29.291C1105.48 29.9195 1105.76 30.3902 1105.76 30.7045V30.861C1105.76 31.3594 1105.46 31.6074 1104.86 31.6074H1096.63ZM1128.43 27.3286C1128.5 27.9571 1128.64 28.4675 1128.84 28.86C1129.07 29.226 1129.28 29.462 1129.48 29.5667C1129.71 29.6715 1129.91 29.8015 1130.08 29.9592C1130.26 30.1157 1130.34 30.312 1130.34 30.548C1130.34 31.4112 1128.93 31.8434 1126.1 31.8434C1124.95 31.8434 1124.08 31.6989 1123.51 31.41C1122.96 31.1235 1122.61 30.6395 1122.46 29.9592C1121.51 31.3197 1119.92 31.9999 1117.69 31.9999C1115.59 31.9999 1113.87 31.4895 1112.54 30.4685C1111.24 29.4488 1110.59 27.9703 1110.59 26.0332C1110.59 24.149 1111.24 22.6838 1112.54 21.6363C1113.85 20.5648 1115.45 20.0278 1117.35 20.0278C1118.83 20.0278 1120.09 20.3541 1121.14 21.0091V20.8911C1120.89 18.3002 1120.61 16.5472 1120.28 15.6298C1119.98 14.7148 1119.38 14.2573 1118.48 14.2573C1117.9 14.2573 1117.44 14.5318 1117.09 15.0808C1116.73 15.6383 1116.47 16.2474 1116.3 16.8867C1116.14 17.5515 1115.83 18.1702 1115.4 18.6927C1114.95 19.2429 1114.35 19.5174 1113.6 19.5174C1112.82 19.5174 1112.18 19.2814 1111.68 18.8107C1111.2 18.3399 1110.97 17.7247 1110.97 16.9662C1110.97 15.448 1111.69 14.3091 1113.14 13.5506C1114.6 12.7656 1116.37 12.3731 1118.48 12.3731C1120.98 12.3731 1123.05 13.0919 1124.67 14.5318C1126.32 15.9453 1127.3 17.868 1127.6 20.3023L1128.43 27.3286ZM1119.75 29.9978C1120.33 29.9978 1120.79 29.71 1121.14 29.1345C1121.52 28.559 1121.71 27.9041 1121.71 27.1721L1121.56 25.3662C1121.31 23.1942 1120.53 22.1083 1119.23 22.1083C1118.65 22.1083 1118.19 22.3563 1117.84 22.8547C1117.49 23.3243 1117.31 23.966 1117.31 24.7774C1117.31 26.2426 1117.53 27.4863 1117.95 28.5061C1118.4 29.5005 1119 29.999 1119.75 29.999V29.9978ZM1131.99 31.6074C1131.41 31.6074 1131.12 31.3594 1131.12 30.861V30.7045C1131.12 30.3914 1131.36 29.9195 1131.84 29.291C1132.34 28.6373 1132.59 27.9823 1132.59 27.3286V9.38975C1132.59 8.70952 1132.34 8.05457 1131.84 7.42731C1131.36 6.77236 1131.12 6.31486 1131.12 6.0524V5.89589C1131.12 5.60694 1131.4 5.30595 1131.95 4.99292L1137.62 2.08779C1138.15 1.85302 1138.56 1.83978 1138.86 2.04927C1139.19 2.23227 1139.35 2.52001 1139.35 2.9125V27.3286C1139.35 27.9823 1139.62 28.6373 1140.17 29.291C1140.73 29.9195 1141 30.3902 1141 30.7045V30.861C1141 31.3594 1140.7 31.6074 1140.1 31.6074H1131.99ZM1162.58 28.3098C1162.71 28.4928 1163.09 28.8335 1163.71 29.3308C1164.36 29.828 1164.69 30.2855 1164.69 30.7045V30.861C1164.69 31.3594 1164.4 31.6074 1163.82 31.6074H1155.94C1155.36 31.6074 1155.07 31.3462 1155.07 30.8225V30.7045C1155.07 30.3914 1155.26 30.011 1155.64 29.5655C1156.01 29.096 1156.09 28.6758 1155.86 28.3098L1152.56 23.1677L1150.68 24.9737V27.3286C1150.68 27.9823 1150.95 28.6373 1151.51 29.291C1152.08 29.9195 1152.37 30.3902 1152.37 30.7045V30.861C1152.37 31.3594 1152.07 31.6074 1151.47 31.6074H1143.36C1142.76 31.6074 1142.46 31.3594 1142.46 30.861V30.7045C1142.46 30.3914 1142.71 29.9195 1143.21 29.291C1143.71 28.6373 1143.96 27.9823 1143.96 27.3286V9.38975C1143.96 8.70952 1143.66 8.05457 1143.06 7.42731C1142.46 6.77236 1142.16 6.31486 1142.16 6.0524V5.89589C1142.16 5.60694 1142.43 5.30595 1142.98 4.99292L1148.99 2.08779C1149.52 1.87831 1149.93 1.86627 1150.23 2.04927C1150.53 2.23227 1150.68 2.52001 1150.68 2.9125V21.5581L1155.75 17.0047C1156.05 16.7952 1156.16 16.534 1156.09 16.2198C1156.04 15.9148 1155.91 15.629 1155.71 15.3951C1155.52 15.1041 1155.32 14.8163 1155.11 14.5318C1154.91 14.2188 1154.81 13.9419 1154.81 13.7071V13.5506C1154.81 13.0269 1155.1 12.7656 1155.68 12.7656H1161.61C1162.18 12.7656 1162.47 13.0136 1162.47 13.5121V13.6686C1162.47 13.9816 1162.3 14.3091 1161.95 14.6498C1161.6 14.9628 1161.1 15.3433 1160.45 15.7875C1159.91 16.1345 1159.41 16.529 1158.94 16.9662L1156.54 19.2814L1162.58 28.3098ZM1170.16 10.4492C1168.88 10.4492 1167.84 10.0832 1167.04 9.35002C1166.24 8.59153 1165.84 7.64884 1165.84 6.52435C1165.84 5.39865 1166.24 4.46921 1167.04 3.7372C1167.84 2.97872 1168.88 2.59827 1170.16 2.59827C1171.41 2.59827 1172.44 2.97751 1173.24 3.7372C1174.04 4.46921 1174.44 5.39865 1174.44 6.52435C1174.44 7.64884 1174.04 8.59153 1173.24 9.35002C1172.43 10.0832 1171.41 10.4492 1170.16 10.4492ZM1166.14 31.6074C1165.54 31.6074 1165.24 31.3594 1165.24 30.861V30.7045C1165.24 30.3914 1165.49 29.9063 1165.99 29.2525C1166.49 28.5988 1166.74 27.9438 1166.74 27.2901V19.8316C1166.74 19.1514 1166.49 18.4964 1165.99 17.8692C1165.49 17.2142 1165.24 16.7688 1165.24 16.5328V16.3763C1165.24 16.0632 1165.52 15.7623 1166.1 15.4733L1171.77 12.5694C1172.3 12.3334 1172.71 12.3069 1173.01 12.4911C1173.31 12.6741 1173.46 12.9751 1173.46 13.3941V27.2901C1173.46 27.9438 1173.74 28.5976 1174.29 29.2525C1174.86 29.9063 1175.15 30.3902 1175.15 30.7045V30.861C1175.15 31.3582 1174.84 31.6074 1174.21 31.6074H1166.14ZM1184.56 31.9999C1182.66 31.9999 1181.16 31.3715 1180.06 30.1157C1178.98 28.86 1178.44 27.0673 1178.44 24.7377V15.4348H1177.01C1176.78 15.4403 1176.55 15.3559 1176.38 15.1988C1176.22 15.0108 1176.14 14.7742 1176.15 14.5318V13.6686C1176.15 13.0666 1176.44 12.7656 1177.01 12.7656H1177.73C1178.88 12.7656 1179.87 12.4117 1180.69 11.7061C1181.52 10.9717 1182.06 10.005 1182.31 8.80102C1182.43 8.12078 1182.77 7.78007 1183.32 7.78007H1184.19C1184.86 7.78007 1185.2 8.12078 1185.2 8.80102V12.7656H1189.07C1189.32 12.7656 1189.52 12.8571 1189.67 13.0401C1189.84 13.1966 1189.93 13.4061 1189.93 13.6686V14.5318C1189.94 14.655 1189.91 14.7775 1189.87 14.892C1189.82 15.0065 1189.76 15.1108 1189.67 15.1988C1189.59 15.2781 1189.5 15.3401 1189.39 15.3808C1189.29 15.4214 1189.18 15.4398 1189.07 15.4348H1185.2V24.8557C1185.2 25.5094 1185.36 26.0332 1185.69 26.4256C1186.01 26.7928 1186.41 26.9758 1186.89 26.9758C1187.97 26.9758 1188.79 26.4919 1189.37 25.5227C1189.54 25.2879 1189.74 25.1567 1189.97 25.1302C1190.2 25.0784 1190.38 25.1181 1190.53 25.2482C1190.71 25.3794 1190.8 25.5612 1190.8 25.7984C1190.8 27.4466 1190.23 28.8986 1189.11 30.1555C1188.01 31.3847 1186.49 31.9999 1184.56 31.9999Z" fill="white"/>
</g>
<defs>
<clipPath id="clip0_0_342">
<rect width="82.0647" height="32" fill="white" transform="translate(291.305)"/>
</clipPath>
<clipPath id="clip1_0_342">
<rect width="182.682" height="24" fill="white" transform="translate(511.133)"/>
</clipPath>
<clipPath id="clip2_0_342">
<rect width="116.465" height="28" fill="white" transform="translate(831.58)"/>
</clipPath>
</defs>
</svg>
