<svg width="10" height="10" viewBox="0 0 10 10" fill="none" xmlns="http://www.w3.org/2000/svg">
<g clip-path="url(#clip0_0_9879)">
<path d="M4.99919 8.7502C7.07024 8.7502 8.74916 7.07128 8.74916 5.00023C8.74916 2.92918 7.07024 1.25026 4.99919 1.25026C2.92814 1.25026 1.24922 2.92918 1.24922 5.00023C1.24922 7.07128 2.92814 8.7502 4.99919 8.7502Z" stroke="#25324B" stroke-width="0.783034" stroke-linecap="round" stroke-linejoin="round"/>
<path d="M4.99896 7.08377V7.08793" stroke="#25324B" stroke-width="0.783034" stroke-linecap="round" stroke-linejoin="round"/>
<path d="M5.00086 5.62498C4.99319 5.48972 5.02967 5.35563 5.10482 5.24291C5.17997 5.13018 5.28972 5.04493 5.41752 4.99999C5.57414 4.9401 5.71471 4.84467 5.82817 4.72122C5.94164 4.59777 6.0249 4.44967 6.0714 4.28857C6.1179 4.12748 6.12638 3.95778 6.09615 3.79286C6.06593 3.62793 5.99784 3.47227 5.89723 3.33813C5.79663 3.20399 5.66626 3.09504 5.51639 3.01984C5.36653 2.94465 5.20125 2.90527 5.03358 2.90481C4.86591 2.90434 4.70041 2.9428 4.55013 3.01716C4.39985 3.09153 4.26888 3.19976 4.16753 3.33333" stroke="#25324B" stroke-width="0.783034" stroke-linecap="round" stroke-linejoin="round"/>
</g>
<defs>
<clipPath id="clip0_0_9879">
<rect width="9.39641" height="9.39641" fill="white" transform="scale(1.06423)"/>
</clipPath>
</defs>
</svg>
