<svg width="25" height="25" viewBox="0 0 25 25" fill="none" xmlns="http://www.w3.org/2000/svg">
<path d="M20.8304 8.34156L4.17463 8.33063C3.59971 8.33025 3.13334 8.79601 3.13296 9.37093L3.13159 11.4529C3.13121 12.0278 3.59697 12.4942 4.1719 12.4946L20.8277 12.5055C21.4026 12.5059 21.869 12.0401 21.8694 11.4652L21.8708 9.38323C21.8711 8.80831 21.4054 8.34194 20.8304 8.34156Z" stroke="#7C8493" stroke-width="2" stroke-linecap="round" stroke-linejoin="round"/>
<path d="M12.5025 8.33604L12.4937 21.8689" stroke="#7C8493" stroke-width="2" stroke-linecap="round" stroke-linejoin="round"/>
<path d="M19.7869 12.505L19.7821 19.7919C19.7818 20.3441 19.5621 20.8735 19.1714 21.2637C18.7807 21.6539 18.251 21.8729 17.6988 21.8725L7.28891 21.8657C6.73673 21.8653 6.20732 21.6456 5.81713 21.2549C5.42694 20.8642 5.20793 20.3345 5.2083 19.7823L5.21308 12.4954" stroke="#7C8493" stroke-width="2" stroke-linecap="round" stroke-linejoin="round"/>
<path d="M7.81823 8.33312C7.12801 8.33267 6.46625 8.05805 5.97851 7.56967C5.49077 7.08129 5.21702 6.41916 5.21747 5.72894C5.21792 5.03873 5.49254 4.37696 5.98092 3.88922C6.4693 3.40148 7.13143 3.12773 7.82165 3.12818C8.82589 3.11134 9.80965 3.59924 10.6447 4.52825C11.4797 5.45726 12.1271 6.78426 12.5027 8.3362C12.8803 6.78475 13.5295 5.4586 14.3657 4.53069C15.2019 3.60278 16.1863 3.11617 17.1905 3.13433C17.8808 3.13478 18.5425 3.4094 19.0303 3.89778C19.518 4.38616 19.7918 5.04829 19.7913 5.73851C19.7909 6.42873 19.5162 7.0905 19.0279 7.57823C18.5395 8.06597 17.8773 8.33973 17.1871 8.33927" stroke="#7C8493" stroke-width="2" stroke-linecap="round" stroke-linejoin="round"/>
</svg>
