<svg width="10" height="10" viewBox="0 0 10 10" fill="none" xmlns="http://www.w3.org/2000/svg">
<g clip-path="url(#clip0_0_9874)">
<path d="M4.30128 1.79901C4.47878 1.06734 5.5196 1.06734 5.6971 1.79901C5.72373 1.90892 5.77594 2.011 5.84948 2.09692C5.92302 2.18284 6.0158 2.25019 6.12029 2.29348C6.22477 2.33677 6.338 2.35477 6.45076 2.34603C6.56351 2.33729 6.67261 2.30204 6.76918 2.24317C7.41209 1.85151 8.14833 2.58733 7.75667 3.23066C7.69788 3.32718 7.66269 3.43622 7.65397 3.5489C7.64525 3.66158 7.66324 3.77473 7.70647 3.87915C7.74971 3.98357 7.81698 4.07631 7.90281 4.14984C7.98863 4.22337 8.0906 4.27561 8.20042 4.30232C8.93208 4.47982 8.93208 5.52064 8.20042 5.69814C8.0905 5.72477 7.98843 5.77698 7.9025 5.85052C7.81658 5.92406 7.74923 6.01684 7.70594 6.12133C7.66265 6.22581 7.64465 6.33904 7.65339 6.4518C7.66213 6.56455 7.69738 6.67365 7.75625 6.77022C8.14792 7.41313 7.41209 8.14937 6.76876 7.75771C6.67224 7.69892 6.56321 7.66373 6.45052 7.65501C6.33784 7.64629 6.22469 7.66428 6.12027 7.70751C6.01585 7.75075 5.92311 7.81802 5.84958 7.90384C5.77605 7.98967 5.72381 8.09164 5.6971 8.20146C5.5196 8.93312 4.47878 8.93312 4.30128 8.20146C4.27465 8.09154 4.22244 7.98947 4.1489 7.90354C4.07537 7.81762 3.98258 7.75027 3.8781 7.70698C3.77361 7.66369 3.66038 7.64569 3.54763 7.65443C3.43487 7.66317 3.32577 7.69842 3.22921 7.75729C2.58629 8.14896 1.85005 7.41313 2.24171 6.7698C2.3005 6.67328 2.33569 6.56424 2.34441 6.45156C2.35314 6.33888 2.33515 6.22573 2.29191 6.12131C2.24867 6.01689 2.18141 5.92415 2.09558 5.85062C2.00975 5.77709 1.90778 5.72485 1.79797 5.69814C1.06631 5.52064 1.06631 4.47982 1.79797 4.30232C1.90788 4.27569 2.00996 4.22348 2.09588 4.14994C2.18181 4.0764 2.24915 3.98362 2.29244 3.87913C2.33573 3.77465 2.35373 3.66142 2.34499 3.54866C2.33625 3.43591 2.30101 3.32681 2.24213 3.23024C1.85047 2.58733 2.58629 1.85109 3.22962 2.24275C3.64462 2.49608 4.18628 2.27192 4.30128 1.79901Z" stroke="#25324B" stroke-width="0.783034" stroke-linecap="round" stroke-linejoin="round"/>
<path d="M6.24972 4.99973C6.24972 5.33125 6.11803 5.64919 5.88361 5.88361C5.64919 6.11803 5.33125 6.24972 4.99973 6.24972C4.66821 6.24972 4.35027 6.11803 4.11585 5.88361C3.88144 5.64919 3.74974 5.33125 3.74974 4.99973C3.74974 4.66821 3.88144 4.35027 4.11585 4.11585C4.35027 3.88144 4.66821 3.74974 4.99973 3.74974C5.33125 3.74974 5.64919 3.88144 5.88361 4.11585C6.11803 4.35027 6.24972 4.66821 6.24972 4.99973V4.99973Z" stroke="#25324B" stroke-width="0.783034" stroke-linecap="round" stroke-linejoin="round"/>
</g>
<defs>
<clipPath id="clip0_0_9874">
<rect width="9.39641" height="9.39641" fill="white" transform="scale(1.06423)"/>
</clipPath>
</defs>
</svg>
