<svg width="26" height="26" viewBox="0 0 26 26" fill="none" xmlns="http://www.w3.org/2000/svg">
<g clip-path="url(#clip0_0_2408)">
<path d="M13.0001 22.75L9.1001 18.85H6.5001C5.46575 18.85 4.47377 18.4391 3.74238 17.7077C3.01099 16.9763 2.6001 15.9843 2.6001 14.95V7.15C2.6001 6.11566 3.01099 5.12368 3.74238 4.39228C4.47377 3.66089 5.46575 3.25 6.5001 3.25H19.5001C20.5344 3.25 21.5264 3.66089 22.2578 4.39228C22.9892 5.12368 23.4001 6.11566 23.4001 7.15V14.95C23.4001 15.9843 22.9892 16.9763 22.2578 17.7077C21.5264 18.4391 20.5344 18.85 19.5001 18.85H16.9001L13.0001 22.75Z" stroke="#4640DE" stroke-width="2" stroke-linecap="round" stroke-linejoin="round"/>
<path d="M7.80029 8.44995H18.2003" stroke="#4640DE" stroke-width="2" stroke-linecap="round" stroke-linejoin="round"/>
<path d="M7.80029 13.6501H15.6003" stroke="#4640DE" stroke-width="2" stroke-linecap="round" stroke-linejoin="round"/>
</g>
<defs>
<clipPath id="clip0_0_2408">
<rect width="26" height="26" fill="white"/>
</clipPath>
</defs>
</svg>
