<svg width="20" height="20" viewBox="0 0 20 20" fill="none" xmlns="http://www.w3.org/2000/svg">
<g clip-path="url(#clip0_0_8381)">
<path d="M5.19824 10.1335L9.99996 10.0002" stroke="white" stroke-width="2" stroke-linecap="round" stroke-linejoin="round"/>
<path d="M18.1622 10.1336L3.72543 16.91C3.64316 16.9406 3.55385 16.9469 3.4681 16.9282C3.38236 16.9094 3.30378 16.8665 3.24173 16.8045C3.17967 16.7424 3.13673 16.6638 3.11802 16.5781C3.09931 16.4923 3.10561 16.403 3.13617 16.3208L5.19857 10.1336L3.13617 3.94638C3.10561 3.86411 3.09931 3.7748 3.11802 3.68905C3.13673 3.60331 3.17967 3.52474 3.24173 3.46268C3.30378 3.40062 3.38235 3.35769 3.4681 3.33898C3.55385 3.32026 3.64316 3.32656 3.72543 3.35713L18.1622 10.1336Z" stroke="white" stroke-width="2" stroke-linecap="round" stroke-linejoin="round"/>
</g>
<defs>
<clipPath id="clip0_0_8381">
<rect width="20" height="20" fill="white"/>
</clipPath>
</defs>
</svg>
