<svg width="10" height="10" viewBox="0 0 10 10" fill="none" xmlns="http://www.w3.org/2000/svg">
<g clip-path="url(#clip0_0_9911)">
<path d="M3.74938 2.08377H2.91605C2.69504 2.08377 2.48308 2.17156 2.3268 2.32784C2.17052 2.48412 2.08273 2.69608 2.08273 2.91709V7.91705C2.08273 8.13807 2.17052 8.35003 2.3268 8.50631C2.48308 8.66258 2.69504 8.75038 2.91605 8.75038H7.08269C7.3037 8.75038 7.51566 8.66258 7.67194 8.50631C7.82822 8.35003 7.91601 8.13807 7.91601 7.91705V2.91709C7.91601 2.69608 7.82822 2.48412 7.67194 2.32784C7.51566 2.17156 7.3037 2.08377 7.08269 2.08377H6.24936" stroke="#25324B" stroke-width="0.783034" stroke-linecap="round" stroke-linejoin="round"/>
<path d="M5.41639 1.25026H4.58307C4.12283 1.25026 3.74974 1.62335 3.74974 2.08359C3.74974 2.54382 4.12283 2.91691 4.58307 2.91691H5.41639C5.87663 2.91691 6.24972 2.54382 6.24972 2.08359C6.24972 1.62335 5.87663 1.25026 5.41639 1.25026Z" stroke="#25324B" stroke-width="0.783034" stroke-linecap="round" stroke-linejoin="round"/>
<path d="M3.74974 5H3.75391" stroke="#25324B" stroke-width="0.783034" stroke-linecap="round" stroke-linejoin="round"/>
<path d="M5.41675 5H6.25008" stroke="#25324B" stroke-width="0.783034" stroke-linecap="round" stroke-linejoin="round"/>
<path d="M3.74974 6.66701H3.75391" stroke="#25324B" stroke-width="0.783034" stroke-linecap="round" stroke-linejoin="round"/>
<path d="M5.41675 6.66701H6.25008" stroke="#25324B" stroke-width="0.783034" stroke-linecap="round" stroke-linejoin="round"/>
</g>
<defs>
<clipPath id="clip0_0_9911">
<rect width="9.39641" height="9.39641" fill="white" transform="scale(1.06423)"/>
</clipPath>
</defs>
</svg>
