<svg width="10" height="10" viewBox="0 0 10 10" fill="none" xmlns="http://www.w3.org/2000/svg">
<path d="M5.00059 0.999792C4.20495 0.999792 3.44189 1.31586 2.87929 1.87846C2.31669 2.44107 2.00062 3.20413 2.00062 3.99977V5.79275L1.64712 6.14625C1.57722 6.21618 1.52961 6.30526 1.51033 6.40223C1.49105 6.49921 1.50095 6.59973 1.53878 6.69107C1.57662 6.78242 1.64069 6.8605 1.72289 6.91545C1.80509 6.97039 1.90174 6.99972 2.00062 6.99975H8.00057C8.09944 6.99972 8.19609 6.97039 8.2783 6.91545C8.3605 6.8605 8.42457 6.78242 8.46241 6.69107C8.50024 6.59973 8.51014 6.49921 8.49086 6.40223C8.47157 6.30526 8.42397 6.21618 8.35407 6.14625L8.00057 5.79275V3.99977C8.00057 3.20413 7.6845 2.44107 7.1219 1.87846C6.55929 1.31586 5.79624 0.999792 5.00059 0.999792ZM5.00059 8.99973C4.60277 8.99973 4.22124 8.8417 3.93994 8.56039C3.65864 8.27909 3.50061 7.89756 3.50061 7.49974H6.50058C6.50058 7.89756 6.34255 8.27909 6.06125 8.56039C5.77994 8.8417 5.39842 8.99973 5.00059 8.99973Z" fill="#202430"/>
<circle cx="7.50025" cy="2.50025" r="1.44575" fill="#FF6550" stroke="white" stroke-width="0.391517"/>
</svg>
