<svg width="10" height="10" viewBox="0 0 10 10" fill="none" xmlns="http://www.w3.org/2000/svg">
<g clip-path="url(#clip0_0_7742)">
<path fill-rule="evenodd" clip-rule="evenodd" d="M4.99991 1.66701C5.23003 1.66701 5.41657 1.85356 5.41657 2.08368V7.91696C5.41657 8.14708 5.23003 8.33363 4.99991 8.33363C4.76979 8.33363 4.58325 8.14708 4.58325 7.91696V2.08368C4.58325 1.85356 4.76979 1.66701 4.99991 1.66701Z" fill="white"/>
<path fill-rule="evenodd" clip-rule="evenodd" d="M1.66701 4.99991C1.66701 4.76979 1.85356 4.58325 2.08368 4.58325H7.91696C8.14708 4.58325 8.33363 4.76979 8.33363 4.99991C8.33363 5.23003 8.14708 5.41657 7.91696 5.41657H2.08368C1.85356 5.41657 1.66701 5.23003 1.66701 4.99991Z" fill="white"/>
</g>
<defs>
<clipPath id="clip0_0_7742">
<rect width="9.39641" height="9.39641" fill="white" transform="scale(1.06423)"/>
</clipPath>
</defs>
</svg>
